<svg width="20" height="20" viewBox="0 0 20 20" fill="none" xmlns="http://www.w3.org/2000/svg">
<path d="M17.978 7.1875C17.753 7.05312 17.5093 7.29687 17.5093 7.65V10.0594C17.5093 10.4094 17.753 10.6531 17.978 10.5219C18.4374 10.2656 18.7499 9.62187 18.7499 8.86875C18.7499 8.11562 18.4374 7.47187 17.978 7.1875Z" fill="white"/>
<path d="M2.73125 11.3812C2.94433 11.4218 3.14014 11.5259 3.29296 11.6799C3.44578 11.8338 3.54845 12.0304 3.5875 12.2437L4.9 17.7687C4.92826 17.9385 5.01972 18.0913 5.15601 18.1964C5.29229 18.3015 5.4633 18.3511 5.63467 18.3352C5.80603 18.3194 5.96506 18.2393 6.07979 18.111C6.19451 17.9828 6.25644 17.8158 6.25313 17.6437V6.25C6.2509 6.20005 6.23761 6.15122 6.21421 6.10703C6.19081 6.06284 6.15788 6.02441 6.11781 5.99451C6.07774 5.9646 6.03153 5.94398 5.98251 5.93412C5.93349 5.92426 5.88289 5.92541 5.83437 5.9375L2.89688 6.67187C2.4327 6.79017 2.02019 7.05756 1.72268 7.43297C1.42517 7.80839 1.25911 8.27108 1.25 8.75V9.6875C1.25032 10.0784 1.38683 10.457 1.63607 10.7581C1.8853 11.0592 2.23168 11.2641 2.61562 11.3375L2.73125 11.3812Z" fill="white"/>
<path d="M8.16571 13.75C8.41961 13.6494 8.64725 13.4923 8.83133 13.2906C9.02716 13.0828 9.27782 12.9346 9.55433 12.8633C9.83084 12.7919 10.1219 12.8003 10.3938 12.8875L14.6157 14.1656C14.7245 14.1964 14.8206 14.2612 14.8898 14.3507C14.959 14.4401 14.9977 14.5494 15.0001 14.6625C14.998 14.731 15.0094 14.7993 15.0338 14.8634C15.0581 14.9275 15.0948 14.9862 15.1418 15.0362C15.1888 15.0861 15.2452 15.1262 15.3078 15.1544C15.3703 15.1825 15.4378 15.198 15.5063 15.2H15.7251C15.8619 15.1992 15.9932 15.1454 16.0911 15.0498C16.189 14.9542 16.246 14.8243 16.2501 14.6875V3.21875C16.2501 3.07868 16.1944 2.94435 16.0954 2.8453C15.9964 2.74626 15.862 2.69062 15.722 2.69062H15.5032C15.4347 2.69304 15.3673 2.70895 15.3049 2.73743C15.2425 2.76592 15.1863 2.80643 15.1396 2.85664C15.0928 2.90685 15.0565 2.96578 15.0325 3.03006C15.0086 3.09433 14.9976 3.1627 15.0001 3.23125C14.9974 3.34689 14.9568 3.45845 14.8845 3.54878C14.8122 3.63911 14.7123 3.70321 14.6001 3.73125L7.90321 5.71875C7.78835 5.74673 7.6862 5.81244 7.61311 5.90535C7.54002 5.99827 7.50022 6.11303 7.50008 6.23125V13.2781C7.49861 13.3585 7.5168 13.4381 7.55307 13.5098C7.58934 13.5816 7.64259 13.6434 7.7082 13.69C7.7738 13.7365 7.84977 13.7662 7.92951 13.7767C8.00924 13.7872 8.09032 13.778 8.16571 13.75Z" fill="white"/>
</svg>
