<svg width="21" height="21" viewBox="0 0 21 21" fill="none" xmlns="http://www.w3.org/2000/svg">
<path d="M19.1775 18.8683H16.8834C16.5777 18.8681 16.2823 18.7571 16.0521 18.5559C15.8219 18.3547 15.6724 18.0769 15.6313 17.7739L14.444 8.93145C14.4101 8.76242 14.3164 8.61127 14.1802 8.50566C14.0439 8.40006 13.8742 8.34706 13.702 8.35638H7.95753C7.7859 8.34783 7.6169 8.40117 7.48129 8.50671C7.34567 8.61225 7.25246 8.76297 7.2186 8.93145L6.03136 17.7739C5.99017 18.0774 5.84022 18.3556 5.60935 18.5569C5.37849 18.7582 5.08241 18.8689 4.77611 18.8683H2.48203C2.40003 18.8683 2.32139 18.9009 2.26341 18.9589C2.20543 19.0169 2.17285 19.0955 2.17285 19.1775C2.17285 19.2595 2.20543 19.3382 2.26341 19.3961C2.32139 19.4541 2.40003 19.4867 2.48203 19.4867H19.1775C19.2595 19.4867 19.3381 19.4541 19.3961 19.3961C19.4541 19.3382 19.4867 19.2595 19.4867 19.1775C19.4867 19.0955 19.4541 19.0169 19.3961 18.9589C19.3381 18.9009 19.2595 18.8683 19.1775 18.8683ZM12.0665 15.4303C12.0681 15.4752 12.0607 15.5199 12.0447 15.5619C12.0287 15.6038 12.0043 15.6421 11.9732 15.6745C11.942 15.7068 11.9046 15.7325 11.8633 15.75C11.8219 15.7676 11.7775 15.7766 11.7326 15.7766H9.92697C9.88206 15.7766 9.83761 15.7676 9.79627 15.75C9.75493 15.7325 9.71756 15.7068 9.68638 15.6745C9.65521 15.6421 9.63088 15.6038 9.61484 15.5619C9.59881 15.5199 9.5914 15.4752 9.59306 15.4303V13.3032C9.59306 12.9752 9.72336 12.6606 9.95529 12.4287C10.1872 12.1968 10.5018 12.0665 10.8298 12.0665C11.1578 12.0665 11.4723 12.1968 11.7042 12.4287C11.9362 12.6606 12.0665 12.9752 12.0665 13.3032V15.4303Z" fill="white"/>
<path d="M5.88289 6.06231C5.88125 6.20058 5.90707 6.3378 5.95885 6.46602C6.01064 6.59424 6.08735 6.7109 6.18456 6.80925C6.28176 6.90761 6.39751 6.98569 6.52511 7.03898C6.65271 7.09227 6.78962 7.1197 6.9279 7.11969H14.7315C14.8698 7.1197 15.0067 7.09227 15.1343 7.03898C15.2619 6.98569 15.3776 6.90761 15.4748 6.80925C15.572 6.7109 15.6487 6.59424 15.7005 6.46602C15.7523 6.3378 15.7781 6.20058 15.7765 6.06231V3.10041C15.7765 2.85441 15.6788 2.61849 15.5048 2.44455C15.3309 2.2706 15.095 2.17288 14.849 2.17288C14.603 2.17288 14.3671 2.2706 14.1931 2.44455C14.0192 2.61849 13.9214 2.85441 13.9214 3.10041V3.40958C13.9214 3.57358 13.8563 3.73086 13.7403 3.84682C13.6244 3.96279 13.4671 4.02794 13.3031 4.02794C13.1391 4.02794 12.9818 3.96279 12.8659 3.84682C12.7499 3.73086 12.6847 3.57358 12.6847 3.40958V2.79123C12.6847 2.62724 12.6196 2.46996 12.5036 2.35399C12.3877 2.23803 12.2304 2.17288 12.0664 2.17288C11.9024 2.17288 11.7451 2.23803 11.6292 2.35399C11.5132 2.46996 11.448 2.62724 11.448 2.79123V3.40958C11.448 3.57358 11.3829 3.73086 11.2669 3.84682C11.151 3.96279 10.9937 4.02794 10.8297 4.02794C10.6657 4.02794 10.5084 3.96279 10.3925 3.84682C10.2765 3.73086 10.2113 3.57358 10.2113 3.40958V2.79123C10.2113 2.62724 10.1462 2.46996 10.0302 2.35399C9.91427 2.23803 9.75699 2.17288 9.59299 2.17288C9.42899 2.17288 9.27172 2.23803 9.15575 2.35399C9.03979 2.46996 8.97464 2.62724 8.97464 2.79123V3.40958C8.97464 3.57358 8.90949 3.73086 8.79353 3.84682C8.67757 3.96279 8.52029 4.02794 8.35629 4.02794C8.19229 4.02794 8.03501 3.96279 7.91905 3.84682C7.80309 3.73086 7.73794 3.57358 7.73794 3.40958V3.10041C7.73794 2.85441 7.64022 2.61849 7.46627 2.44455C7.29233 2.2706 7.05641 2.17288 6.81041 2.17288C6.56442 2.17288 6.3285 2.2706 6.15455 2.44455C5.98061 2.61849 5.88289 2.85441 5.88289 3.10041V6.06231Z" fill="white"/>
</svg>
