<svg width="16" height="16" viewBox="0 0 16 16" fill="none" xmlns="http://www.w3.org/2000/svg">
<path fill-rule="evenodd" clip-rule="evenodd" d="M8.02708 2.15208C8.12674 2.0546 8.2606 2.00001 8.4 2C8.53415 2.00042 8.66321 2.05137 8.76146 2.14271L12.1333 4.90104V4.13333C12.1333 3.83893 12.3723 3.6 12.6667 3.6H13.2C13.4944 3.6 13.7333 3.83893 13.7333 4.13333V6.20937L14.5854 6.90625C14.598 6.91577 14.6102 6.92585 14.6219 6.93646L14.6302 6.94271C14.7386 7.04369 14.8001 7.18519 14.8 7.33333C14.8 7.62789 14.5612 7.86667 14.2667 7.86667H13.7333V13.7333C13.7333 14.3227 13.256 14.8 12.6667 14.8H4.13333C3.544 14.8 3.06667 14.3227 3.06667 13.7333V7.86667H2.53333C2.23878 7.86667 2 7.62789 2 7.33333C2.00018 7.18556 2.06167 7.04448 2.16979 6.94375V6.94271L2.18958 6.92604C2.19606 6.92068 2.20266 6.91547 2.20937 6.91042L8.02708 2.15208ZM12.1333 8.93333H10V13.2H12.1333V8.93333Z"/>
</svg>
